<svg xmlns="http://www.w3.org/2000/svg" viewBox="0 0 32 32">
  <defs>
    <style>
      .a {
        fill: #1b3d6e;
      }
    </style>
  </defs>
  <g>
    <polygon class="a" points="6.52 4.55 8.48 1.16 10.44 4.55 6.52 4.55"/>
    <g>
      <polygon class="a" points="14.67 24.87 18.97 20.02 18.97 29.84 22.66 29.84 22.66 20.02 26.96 24.87 29.67 22.35 20.82 12.84 11.97 22.35 14.67 24.87"/>
      <path class="a" d="M10.44,22h.18l.47-.51L16,16.22V10.91a4,4,0,0,0-4-4H4.9a4,4,0,0,0-4,4v7.16a4,4,0,0,0,4,4H6.52V18.69h3.92ZM6.52,14.2l2-3.39,2,3.39Z"/>
    </g>
  </g>
</svg>
