<svg xmlns="http://www.w3.org/2000/svg" viewBox="0 0 32 32">
  <defs>
    <style>
      .a {
        fill: #1b3d6e;
      }
    </style>
  </defs>
  <g>
    <g>
      <path class="a" d="M16.2,2.28a8.18,8.18,0,1,0,8.19,8.18A8.18,8.18,0,0,0,16.2,2.28Zm0,14.34a6.16,6.16,0,1,1,6.16-6.16A6.16,6.16,0,0,1,16.2,16.62Z"/>
      <path class="a" d="M20.64,10.38h0L17,10l-.28-4a.52.52,0,0,0-.52-.49.49.49,0,0,0-.51.49l-.34,4.7a.85.85,0,0,0,.77.84s4.52-.32,4.52-.32c.29,0,.51-.15.51-.43S21,10.4,20.64,10.38Z"/>
    </g>
    <path class="a" d="M31.76,29.72H.24V21.53H31.76Zm-12-1.8H30V23.33H19.73Z"/>
  </g>
</svg>
