<svg xmlns="http://www.w3.org/2000/svg" viewBox="0 0 32 32">
  <defs>
    <style>
      .a {
        fill: #1b3d6e;
      }
    </style>
  </defs>
  <path class="a" d="M15.35,11.41H13A4,4,0,0,0,9.81,8.09V5.87H8.31V8.08a3.94,3.94,0,0,0-3.17,3.33H2.77v1.5H5.2a4,4,0,0,0,3.11,2.95v2.59h1.5V15.86a4,4,0,0,0,3.07-2.95h2.47ZM9,14.43A2.46,2.46,0,1,1,11.51,12,2.46,2.46,0,0,1,9,14.43Z"/>
  <path class="a" d="M22.55,22.25h-2.4A3.94,3.94,0,0,0,17,18.92V16.71h-1.5v2.21a4,4,0,0,0-3.17,3.33H10v1.5h2.44a4,4,0,0,0,3.1,2.94v2.6H17v-2.6a4,4,0,0,0,3.07-2.94h2.47Zm-6.3,3a2.47,2.47,0,1,1,2.46-2.46A2.47,2.47,0,0,1,16.25,25.27Z"/>
  <path class="a" d="M29.23,8.25h-2.4a4,4,0,0,0-3.14-3.32V2.71h-1.5V4.92A4,4,0,0,0,19,8.25H16.65v1.5h2.44a4,4,0,0,0,3.1,2.95v2.59h1.5V12.7a4,4,0,0,0,3.07-2.95h2.47Zm-6.3,3a2.46,2.46,0,1,1,2.46-2.46A2.47,2.47,0,0,1,22.93,11.27Z"/>
</svg>
