<svg xmlns="http://www.w3.org/2000/svg" viewBox="0 0 32 32">
  <defs>
    <style>
      .a {
        fill: #1b3d6e;
      }
    </style>
  </defs>
  <g>
    <polygon class="a" points="14.65 22.67 18.23 18.63 18.23 26.81 21.31 26.81 21.31 18.63 24.89 22.67 27.14 20.57 19.77 12.64 12.4 20.57 14.65 22.67"/>
    <g>
      <path class="a" d="M19,12l.73-.78.73.78,2.7,2.91a4.18,4.18,0,0,0-5.56-6A5.9,5.9,0,0,0,6.06,9a3.92,3.92,0,0,0,1.3,7.61h7.32Z"/>
      <path class="a" d="M22.52,15.61l-2.75-3-3.72,4h3.73A4.15,4.15,0,0,0,22.52,15.61Z"/>
    </g>
  </g>
</svg>
