<svg xmlns="http://www.w3.org/2000/svg" viewBox="0 0 32 32">
  <defs>
    <style>
      .a {
        fill: #1b3d6e;
      }
    </style>
  </defs>
  <g>
    <g>
      <path class="a" d="M6.87,7.55H9.3c1.64,0,2.89.57,2.89,2.32s-1.27,2.45-2.85,2.45h-1V15H6.87Zm2.37,3.6c1,0,1.5-.43,1.5-1.28s-.53-1.15-1.55-1.15H8.35v2.43Z"/>
      <path class="a" d="M13.46,7.55h2c2.25,0,3.65,1.17,3.65,3.67S17.74,15,15.57,15H13.46Zm1.94,6.21c1.37,0,2.23-.74,2.23-2.54s-.86-2.49-2.23-2.49h-.46v5Z"/>
      <path class="a" d="M20.52,7.55h4.55V8.78H22v1.93h2.62V12H22v3H20.52Z"/>
    </g>
    <g>
      <path class="a" d="M5.8,20.65a3.54,3.54,0,0,1,3.54-3.87,3.11,3.11,0,0,1,2.29.95l-.78.94a2,2,0,0,0-1.46-.62c-1.23,0-2.08,1-2.08,2.55S8,23.18,9.5,23.18a1.48,1.48,0,0,0,.92-.28V21.44H9.11V20.23h2.63v3.34a3.53,3.53,0,0,1-2.4.88C7.34,24.45,5.8,23.12,5.8,20.65Z"/>
      <path class="a" d="M13.26,16.91H14.9l1.25,3.47c.16.46.3.95.45,1.42h0c.16-.47.29-1,.45-1.42l1.23-3.47H20v7.4H18.62V21.23c0-.7.11-1.73.19-2.43h0l-.6,1.74L17,23.65h-.85L15,20.54l-.58-1.74h0c.07.7.19,1.73.19,2.43v3.08H13.26Z"/>
      <path class="a" d="M21.72,16.91h1.47v6.17h3v1.23H21.72Z"/>
    </g>
  </g>
</svg>
