<svg xmlns="http://www.w3.org/2000/svg" viewBox="0 0 32 32">
  <defs>
    <style>
      .a {
        fill: #1b3d6e;
      }
    </style>
  </defs>
  <g>
    <polygon class="a" points="14.49 24.46 18.97 19.42 18.97 29.64 22.81 29.64 22.81 19.41 27.29 24.46 30.1 21.84 20.89 11.93 11.67 21.84 14.49 24.46"/>
    <g>
      <path class="a" d="M20,11.08l.92-1,.91,1,3.38,3.63a5.17,5.17,0,0,0,.95-3A5.24,5.24,0,0,0,20.9,6.47a5.15,5.15,0,0,0-2.67.74,7.38,7.38,0,0,0-14.48.21,4.9,4.9,0,0,0,1.63,9.52h9.15Z"/>
      <path class="a" d="M24.33,15.63l-3.44-3.7-4.66,5H20.9A5.16,5.16,0,0,0,24.33,15.63Z"/>
    </g>
  </g>
</svg>
