<svg xmlns="http://www.w3.org/2000/svg" viewBox="0 0 32 32">
  <defs>
    <style>
      .a {
        fill: #1b3d6e;
      }
    </style>
  </defs>
  <polygon class="a" points="7.87 7.48 9.51 4.65 11.14 7.48 7.87 7.48"/>
  <g>
    <polygon class="a" points="25.13 15.85 21.55 19.89 21.55 11.71 18.47 11.71 18.47 19.89 14.89 15.85 12.64 17.95 20.01 25.88 27.38 17.95 25.13 15.85"/>
    <g>
      <path class="a" d="M15.8,16.88l-.91-1L12.64,18l2.53,2.72a3.3,3.3,0,0,0,.63-1.93Z"/>
      <path class="a" d="M11.9,18.63l-.68-.73.74-.68,2.25-2.1.75-.7.68.77.16.18V12.78a3.32,3.32,0,0,0-3.32-3.32h-6a3.32,3.32,0,0,0-3.31,3.32v6a3.31,3.31,0,0,0,3.31,3.31H7.88V19.26h3.26v2.79h1.34a3.24,3.24,0,0,0,2-.67Zm-4-3.12L9.5,12.69l1.64,2.82Z"/>
    </g>
  </g>
</svg>
