<svg xmlns="http://www.w3.org/2000/svg" viewBox="0 0 32 32">
  <defs>
    <style>
      .a {
        fill: #1b3d6e;
      }
    </style>
  </defs>
  <g>
    <g>
      <path class="a" d="M16.17,4.57A6.82,6.82,0,1,0,23,11.39,6.82,6.82,0,0,0,16.17,4.57Zm0,11.94a5.13,5.13,0,1,1,5.13-5.12A5.13,5.13,0,0,1,16.17,16.51Z"/>
      <path class="a" d="M19.87,11.32h0L16.83,11,16.6,7.69a.43.43,0,0,0-.43-.41.41.41,0,0,0-.42.41l-.29,3.92a.71.71,0,0,0,.64.7S19.87,12,19.87,12c.24,0,.42-.13.42-.36S20.13,11.33,19.87,11.32Z"/>
    </g>
    <path class="a" d="M29.14,27.43H2.86V20.61H29.14Zm-10-1.5h8.53V22.11H19.11Z"/>
  </g>
</svg>
