<?xml version="1.0" encoding="UTF-8" standalone="no"?>
<svg
   xmlns:dc="http://purl.org/dc/elements/1.1/"
   xmlns:cc="http://creativecommons.org/ns#"
   xmlns:rdf="http://www.w3.org/1999/02/22-rdf-syntax-ns#"
   xmlns:svg="http://www.w3.org/2000/svg"
   xmlns="http://www.w3.org/2000/svg"
   xmlns:xlink="http://www.w3.org/1999/xlink"
   id="svg8"
   version="1.1"
   viewBox="0 0 8.4666667 8.4666667"
   height="32"
   width="32">
  <defs
     id="defs2">
    <linearGradient
       id="linearGradient855">
      <stop
         id="stop851"
         offset="0"
         style="stop-color:#1294ca;stop-opacity:1" />
      <stop
         id="stop853"
         offset="1"
         style="stop-color:#1a4374;stop-opacity:1" />
    </linearGradient>
    <linearGradient
       gradientUnits="userSpaceOnUse"
       y2="295.23245"
       x2="4.1315813"
       y1="290.10425"
       x1="4.1161108"
       id="linearGradient857"
       xlink:href="#linearGradient855" />
    <linearGradient
       gradientTransform="translate(8.2918527,-7.6776414)"
       y2="295.23245"
       x2="4.1315813"
       y1="290.10425"
       x1="4.1161108"
       gradientUnits="userSpaceOnUse"
       id="linearGradient818"
       xlink:href="#linearGradient855" />
    <linearGradient
       gradientTransform="matrix(14.766264,0,0,14.985582,-176.93562,-4469.7145)"
       gradientUnits="userSpaceOnUse"
       y2="300.31464"
       x2="13.066781"
       y1="298.40561"
       x1="13.028367"
       id="linearGradient856"
       xlink:href="#linearGradient855" />
  </defs>
  <metadata
     id="metadata5">
    <rdf:RDF>
      <cc:Work
         rdf:about="">
        <dc:format>image/svg+xml</dc:format>
        <dc:type
           rdf:resource="http://purl.org/dc/dcmitype/StillImage" />
        <dc:title></dc:title>
      </cc:Work>
    </rdf:RDF>
  </metadata>
  <g
     transform="translate(0,-288.53333)"
     id="layer1">
    <g
       id="text849"
       style="font-style:normal;font-weight:normal;font-size:11.56914997px;line-height:1.25;font-family:sans-serif;letter-spacing:0px;word-spacing:0px;fill:url(#linearGradient857);fill-opacity:1;stroke:none;stroke-width:0.28922874"
       aria-label="?">
      <path
         id="path848"
         transform="matrix(0.26458333,0,0,0.26458333,0,288.53333)"
         d="M 15.445312 2.0664062 L 14.572266 6.9335938 L 10.910156 7.8183594 L 6.8984375 4.9863281 L 3.4980469 8.0839844 L 6.9863281 11.978516 L 5.8515625 16.669922 L 1.3164062 19.324219 L 2.625 23.128906 L 7.6835938 22.15625 L 9.5136719 24.632812 L 8.8164062 28.970703 L 13.439453 29.767578 L 15.095703 24.900391 L 18.671875 24.900391 L 21.201172 29.414062 L 24.775391 27.820312 L 23.03125 22.865234 L 25.125 20.740234 L 29.746094 20.830078 L 30.357422 16.669922 L 25.822266 15.519531 L 25.734375 12.509766 L 28.701172 9.7675781 L 26.345703 6.2265625 L 22.683594 8.4394531 L 20.328125 6.9355469 L 20.501953 3.1289062 L 15.445312 2.0664062 z M 16.496094 12.423828 A 3.4408318 3.8827735 82.257534 0 1 20.419922 15.345703 A 3.4408318 3.8827735 82.257534 0 1 17.037109 19.279297 A 3.4408318 3.8827735 82.257534 0 1 12.724609 16.392578 A 3.4408318 3.8827735 82.257534 0 1 16.109375 12.458984 A 3.4408318 3.8827735 82.257534 0 1 16.496094 12.423828 z "
         style="fill:url(#linearGradient856);fill-opacity:1;stroke:#000000;stroke-width:0;stroke-linecap:butt;stroke-linejoin:miter;stroke-miterlimit:4;stroke-dasharray:none;stroke-opacity:1" />
    </g>
  </g>
</svg>
