<svg xmlns="http://www.w3.org/2000/svg" viewBox="0 0 32 32">
  <defs>
    <style>
      .a {
        fill: #1b3d6e;
      }
    </style>
  </defs>
  <path class="a" d="M23.74,3.1H8.26A2.06,2.06,0,0,0,6.2,5.16V26.84A2.06,2.06,0,0,0,8.26,28.9H23.74a2.06,2.06,0,0,0,2.06-2.06V5.16A2.06,2.06,0,0,0,23.74,3.1ZM10.84,25.8a1.55,1.55,0,1,1,1.55-1.54A1.54,1.54,0,0,1,10.84,25.8Zm0-5.16a1.55,1.55,0,1,1,1.55-1.54A1.54,1.54,0,0,1,10.84,20.64Zm0-5.16a1.55,1.55,0,1,1,1.55-1.54A1.54,1.54,0,0,1,10.84,15.48ZM16,25.8a1.55,1.55,0,1,1,1.55-1.54A1.54,1.54,0,0,1,16,25.8Zm0-5.16a1.55,1.55,0,1,1,1.55-1.54A1.54,1.54,0,0,1,16,20.64Zm0-5.16a1.55,1.55,0,1,1,1.55-1.54A1.54,1.54,0,0,1,16,15.48Zm6.71,8.78a1.54,1.54,0,0,1-1.81,1.52,1.61,1.61,0,0,1-1.29-1.61v-5a1.61,1.61,0,0,1,1.29-1.61,1.55,1.55,0,0,1,1.81,1.53Zm-1.55-8.78a1.55,1.55,0,1,1,1.55-1.54A1.55,1.55,0,0,1,21.16,15.48Zm2.06-5.16H8.78V5.68H23.22Z"/>
</svg>
