<svg xmlns="http://www.w3.org/2000/svg" viewBox="0 0 32 32">
  <defs>
    <style>
      .a {
        fill: #1b3d6e;
      }
    </style>
  </defs>
  <path class="a" d="M22.19,5.68H9.81A1.65,1.65,0,0,0,8.16,7.33V24.67a1.65,1.65,0,0,0,1.65,1.65H22.19a1.65,1.65,0,0,0,1.65-1.65V7.33A1.65,1.65,0,0,0,22.19,5.68ZM11.87,23.84a1.24,1.24,0,1,1,1.24-1.23A1.24,1.24,0,0,1,11.87,23.84Zm0-4.12a1.24,1.24,0,0,1,0-2.48,1.24,1.24,0,0,1,0,2.48Zm0-4.13a1.24,1.24,0,1,1,0-2.48,1.24,1.24,0,0,1,0,2.48ZM16,23.84a1.24,1.24,0,1,1,1.24-1.23A1.24,1.24,0,0,1,16,23.84Zm0-4.12a1.24,1.24,0,1,1,1.24-1.24A1.25,1.25,0,0,1,16,19.72Zm0-4.13a1.24,1.24,0,1,1,1.24-1.24A1.25,1.25,0,0,1,16,15.59Zm5.37,7a1.24,1.24,0,0,1-1.45,1.22,1.28,1.28,0,0,1-1-1.29v-4a1.27,1.27,0,0,1,1-1.28,1.23,1.23,0,0,1,1.45,1.22Zm-1.24-7a1.24,1.24,0,1,1,1.24-1.24A1.24,1.24,0,0,1,20.13,15.59Zm1.65-4.13H10.22V7.74H21.78Z"/>
</svg>
