<svg xmlns="http://www.w3.org/2000/svg" viewBox="0 0 32 32">
  <defs>
    <style>
      .a {
        fill: #1b3d6e;
      }
    </style>
  </defs>
  <polygon class="a" points="7.87 6.43 9.51 3.6 11.14 6.43 7.87 6.43"/>
  <g>
    <polygon class="a" points="25.13 14.8 21.55 18.84 21.55 10.66 18.47 10.66 18.47 18.84 14.89 14.8 12.64 16.9 20.01 24.83 27.38 16.9 25.13 14.8"/>
    <path class="a" d="M11.9,17.58l-.68-.73.74-.68,2.25-2.1.75-.7.68.77.16.18V11.73a3.32,3.32,0,0,0-3.32-3.31h-6a3.31,3.31,0,0,0-3.31,3.31v6A3.31,3.31,0,0,0,6.52,21H7.88V18.21h3.26V21h1.34a3.24,3.24,0,0,0,2-.67Zm-4-3.11L9.5,11.64l1.64,2.83Z"/>
  </g>
</svg>