<svg xmlns="http://www.w3.org/2000/svg" viewBox="0 0 32 32">
  <defs>
    <style>
      .a {
        fill: #1b3d6e;
      }
    </style>
  </defs>
  <polygon class="a" points="7.98 6.38 9.62 3.55 11.25 6.38 7.98 6.38"/>
  <g>
    <polygon class="a" points="14.78 23.31 18.36 19.27 18.36 27.45 21.43 27.45 21.43 19.27 25.02 23.31 27.27 21.21 19.9 13.28 12.53 21.21 14.78 23.31"/>
    <path class="a" d="M11.25,21h.15l.39-.42,4.12-4.43V11.68a3.32,3.32,0,0,0-3.32-3.32h-6a3.32,3.32,0,0,0-3.31,3.32v6A3.31,3.31,0,0,0,6.63,21H8V18.16h3.26ZM8,14.41l1.64-2.82,1.63,2.82Z"/>
  </g>
</svg>
