<?xml version="1.0" encoding="UTF-8" standalone="no"?>
<svg
   xmlns:dc="http://purl.org/dc/elements/1.1/"
   xmlns:cc="http://creativecommons.org/ns#"
   xmlns:rdf="http://www.w3.org/1999/02/22-rdf-syntax-ns#"
   xmlns:svg="http://www.w3.org/2000/svg"
   xmlns="http://www.w3.org/2000/svg"
   xmlns:xlink="http://www.w3.org/1999/xlink"
   xmlns:sodipodi="http://sodipodi.sourceforge.net/DTD/sodipodi-0.dtd"
   xmlns:inkscape="http://www.inkscape.org/namespaces/inkscape"
   width="32"
   height="32"
   viewBox="0 0 8.4666667 8.4666667"
   version="1.1"
   id="svg8"
   sodipodi:docname="icon_add_open_data_layer.svg"
   inkscape:version="0.92.5 (2060ec1f9f, 2020-04-08)">
  <sodipodi:namedview
     pagecolor="#ffffff"
     bordercolor="#666666"
     borderopacity="1"
     objecttolerance="10"
     gridtolerance="10"
     guidetolerance="10"
     inkscape:pageopacity="0"
     inkscape:pageshadow="2"
     inkscape:window-width="1475"
     inkscape:window-height="891"
     id="namedview21"
     showgrid="false"
     inkscape:zoom="14.75"
     inkscape:cx="4.53112"
     inkscape:cy="15.272849"
     inkscape:window-x="704"
     inkscape:window-y="322"
     inkscape:window-maximized="0"
     inkscape:current-layer="svg8" />
  <defs
     id="defs2">
    <linearGradient
       id="linearGradient899">
      <stop
         id="stop895"
         offset="0"
         style="stop-color:#d96f26;stop-opacity:1" />
      <stop
         id="stop897"
         offset="1"
         style="stop-color:#6d3626;stop-opacity:1" />
    </linearGradient>
    <linearGradient
       id="linearGradient855">
      <stop
         id="stop882"
         offset="0"
         style="stop-color:#1294ca;stop-opacity:1" />
      <stop
         id="stop884"
         offset="1"
         style="stop-color:#1a4374;stop-opacity:1" />
    </linearGradient>
    <linearGradient
       id="linearGradient855-7">
      <stop
         style="stop-color:#1294ca;stop-opacity:1"
         offset="0"
         id="stop851" />
      <stop
         style="stop-color:#1a4374;stop-opacity:1"
         offset="1"
         id="stop853" />
    </linearGradient>
    <linearGradient
       xlink:href="#linearGradient855-7"
       id="linearGradient857"
       x1="4.1161108"
       y1="290.10425"
       x2="4.1315813"
       y2="295.23245"
       gradientUnits="userSpaceOnUse" />
    <linearGradient
       xlink:href="#linearGradient855-7"
       id="linearGradient818"
       gradientUnits="userSpaceOnUse"
       x1="4.1161108"
       y1="290.10425"
       x2="4.1315813"
       y2="295.23245"
       gradientTransform="translate(8.2918527,-7.6776414)" />
    <linearGradient
       xlink:href="#linearGradient855-7"
       id="linearGradient856"
       x1="13.028367"
       y1="298.40561"
       x2="13.066781"
       y2="300.31464"
       gradientUnits="userSpaceOnUse"
       gradientTransform="matrix(14.766264,0,0,14.985582,-176.93562,-4469.7145)" />
    <linearGradient
       gradientUnits="userSpaceOnUse"
       y2="0.25112972"
       x2="4.2198801"
       y1="8.1437855"
       x1="4.3185382"
       id="linearGradient893"
       xlink:href="#linearGradient899" />
  </defs>
  <metadata
     id="metadata5">
    <rdf:RDF>
      <cc:Work
         rdf:about="">
        <dc:format>image/svg+xml</dc:format>
        <dc:type
           rdf:resource="http://purl.org/dc/dcmitype/StillImage" />
        <dc:title />
      </cc:Work>
    </rdf:RDF>
  </metadata>
  <rect
     y="0.26458287"
     x="0.26458383"
     height="7.9375"
     width="7.937499"
     id="rect843"
     style="opacity:1;fill:url(#linearGradient893);fill-opacity:1;stroke:#d59216;stroke-width:0;stroke-linecap:butt;stroke-linejoin:round;stroke-miterlimit:4;stroke-dasharray:none;stroke-dashoffset:0;stroke-opacity:1" />
  <path
     sodipodi:type="star"
     style="fill:#ba5f26;fill-opacity:1;stroke:#ffffff;stroke-width:0.94855471;stroke-miterlimit:4;stroke-dasharray:none;stroke-opacity:1"
     id="path4534"
     sodipodi:sides="6"
     sodipodi:cx="2.6189265"
     sodipodi:cy="2.5112996"
     sodipodi:r1="3.1029129"
     sodipodi:r2="3.5665665"
     sodipodi:arg1="0.51540315"
     sodipodi:arg2="1.0390019"
     inkscape:flatsided="false"
     inkscape:rounded="0.02"
     inkscape:randomized="0"
     d="M 5.3187527,4.0406809 C 5.301173,4.0717144 4.458205,5.5672321 4.4274638,5.585318 4.3967226,5.603404 2.6800221,5.613816 2.6443566,5.6141083 2.608691,5.6144006 0.89205057,5.6321277 0.86101711,5.614548 0.82998364,5.5969684 -0.03738367,4.1154682 -0.05546961,4.084727 -0.07355556,4.0539859 -0.94722785,2.5761952 -0.94752016,2.5405296 c -2.9231e-4,-0.035666 0.84904087,-1.5275778 0.86662052,-1.55861129 0.01757965,-0.0310335 0.86054774,-1.52655119 0.89128889,-1.54463713 0.0307412,-0.0180859 1.74744165,-0.028498 1.78310725,-0.0287903 0.035666,-2.9231e-4 1.752306,-0.0180194 1.7833394,-4.3975e-4 0.031034,0.0175797 0.8984008,1.49907989 0.9164868,1.52982104 0.018086,0.0307412 0.8917582,1.50853179 0.8920505,1.54419739 2.923e-4,0.035666 -0.8490409,1.5275778 -0.8666205,1.5586113 z"
     transform="matrix(0.89713631,0,0,0.38793817,1.8837993,4.2784736)" />
  <path
     sodipodi:type="star"
     style="fill:#a55426;fill-opacity:1;stroke:#ffffff;stroke-width:0.94855469;stroke-miterlimit:4;stroke-dasharray:none;stroke-opacity:1"
     id="path4534-0"
     sodipodi:sides="6"
     sodipodi:cx="2.6189265"
     sodipodi:cy="2.5112996"
     sodipodi:r1="3.1029129"
     sodipodi:r2="3.5665665"
     sodipodi:arg1="0.51540315"
     sodipodi:arg2="1.0390019"
     inkscape:flatsided="false"
     inkscape:rounded="0.02"
     inkscape:randomized="0"
     d="M 5.3187527,4.0406809 C 5.301173,4.0717144 4.458205,5.5672321 4.4274638,5.585318 4.3967226,5.603404 2.6800221,5.613816 2.6443566,5.6141083 2.608691,5.6144006 0.89205057,5.6321277 0.86101711,5.614548 0.82998364,5.5969684 -0.03738367,4.1154682 -0.05546961,4.084727 -0.07355556,4.0539859 -0.94722785,2.5761952 -0.94752016,2.5405296 c -2.9231e-4,-0.035666 0.84904087,-1.5275778 0.86662052,-1.55861129 0.01757965,-0.0310335 0.86054774,-1.52655119 0.89128889,-1.54463713 0.0307412,-0.0180859 1.74744165,-0.028498 1.78310725,-0.0287903 0.035666,-2.9231e-4 1.752306,-0.0180194 1.7833394,-4.3975e-4 0.031034,0.0175797 0.8984008,1.49907989 0.9164868,1.52982104 0.018086,0.0307412 0.8917582,1.50853179 0.8920505,1.54419739 2.923e-4,0.035666 -0.8490409,1.5275778 -0.8666205,1.5586113 z"
     transform="matrix(0.89713631,0,0,0.38793817,1.8837993,3.0288527)" />
  <path
     sodipodi:type="star"
     style="fill:#924926;fill-opacity:1;stroke:#ffffff;stroke-width:0.94855469;stroke-miterlimit:4;stroke-dasharray:none;stroke-opacity:1"
     id="path4534-0-9"
     sodipodi:sides="6"
     sodipodi:cx="2.6189265"
     sodipodi:cy="2.5112996"
     sodipodi:r1="3.1029129"
     sodipodi:r2="3.5665665"
     sodipodi:arg1="0.51540315"
     sodipodi:arg2="1.0390019"
     inkscape:flatsided="false"
     inkscape:rounded="0.02"
     inkscape:randomized="0"
     d="M 5.3187527,4.0406809 C 5.301173,4.0717144 4.458205,5.5672321 4.4274638,5.585318 4.3967226,5.603404 2.6800221,5.613816 2.6443566,5.6141083 2.608691,5.6144006 0.89205057,5.6321277 0.86101711,5.614548 0.82998364,5.5969684 -0.03738367,4.1154682 -0.05546961,4.084727 -0.07355556,4.0539859 -0.94722785,2.5761952 -0.94752016,2.5405296 c -2.9231e-4,-0.035666 0.84904087,-1.5275778 0.86662052,-1.55861129 0.01757965,-0.0310335 0.86054774,-1.52655119 0.89128889,-1.54463713 0.0307412,-0.0180859 1.74744165,-0.028498 1.78310725,-0.0287903 0.035666,-2.9231e-4 1.752306,-0.0180194 1.7833394,-4.3975e-4 0.031034,0.0175797 0.8984008,1.49907989 0.9164868,1.52982104 0.018086,0.0307412 0.8917582,1.50853179 0.8920505,1.54419739 2.923e-4,0.035666 -0.8490409,1.5275778 -0.8666205,1.5586113 z"
     transform="matrix(0.89713631,0,0,0.38793817,1.8837993,1.7792314)" />
  <g
     transform="matrix(0.2356068,0,0,0.2356068,0.66266491,0.66266491)"
     id="g30">
    <rect
       style="fill:#5a8c5a"
       height="13"
       rx="2.6149371"
       width="13"
       x="19"
       y="19"
       id="rect20" />
    <g
       style="fill-rule:evenodd"
       id="g28">
      <path
         style="fill:#ffffff;stroke:#ffffff;stroke-width:2.5999999;stroke-linecap:round;stroke-linejoin:round"
         inkscape:connector-curvature="0"
         d="m 21.6,25.499999 h 7.8"
         id="path22" />
      <path
         style="fill:#ffffff;stroke:#ffffff;stroke-width:2.5999999;stroke-linecap:round;stroke-linejoin:round"
         inkscape:connector-curvature="0"
         d="M 25.5,29.399999 V 21.6"
         id="path24" />
      <path
         style="opacity:0.3;fill:#fcffff"
         inkscape:connector-curvature="0"
         d="m 20.3,25.499999 h 10.4 c 0,0 0,0 0,-2.6 C 30.7,20.3 30.05,20.3 25.5,20.3 c -4.55,0 -5.2,0 -5.2,2.599999 z"
         id="path26" />
    </g>
  </g>
</svg>
