<svg xmlns="http://www.w3.org/2000/svg" viewBox="0 0 32 32">
  <defs>
    <style>
      .a {
        fill: #1b3d6e;
      }
    </style>
  </defs>
  <path class="a" d="M15.22,10.49H12.34a4.75,4.75,0,0,0-3.77-4V3.85H6.77V6.5a4.75,4.75,0,0,0-3.81,4H.12v1.8H3.05a4.74,4.74,0,0,0,3.72,3.54v3.11h1.8V15.83a4.77,4.77,0,0,0,3.69-3.54h3ZM7.65,14.12a3,3,0,1,1,3-2.95A3,3,0,0,1,7.65,14.12Z"/>
  <path class="a" d="M23.86,23.5H21a4.73,4.73,0,0,0-3.76-4V16.85h-1.8V19.5a4.75,4.75,0,0,0-3.81,4H8.77v1.8h2.92a4.74,4.74,0,0,0,3.73,3.53V32h1.8V28.83A4.76,4.76,0,0,0,20.9,25.3h3ZM16.3,27.12a3,3,0,1,1,2.95-2.95A3,3,0,0,1,16.3,27.12Z"/>
  <path class="a" d="M31.88,6.7H29a4.75,4.75,0,0,0-3.77-4V.05h-1.8V2.71a4.75,4.75,0,0,0-3.81,4H16.78V8.5h2.93A4.74,4.74,0,0,0,23.43,12v3.11h1.8V12A4.77,4.77,0,0,0,28.92,8.5h3Zm-7.57,3.63a3,3,0,1,1,3-3A3,3,0,0,1,24.31,10.33Z"/>
</svg>
