<svg xmlns="http://www.w3.org/2000/svg" viewBox="0 0 32 32">
  <defs>
    <style>
      .a {
        fill: #1b3d6e;
      }
    </style>
  </defs>
  <g>
    <polygon class="a" points="6.39 4.63 8.35 1.24 10.3 4.63 6.39 4.63"/>
    <g>
      <polygon class="a" points="27.1 14.68 22.8 19.53 22.8 9.71 19.11 9.71 19.11 19.53 14.81 14.68 12.11 17.2 20.95 26.71 29.8 17.2 27.1 14.68"/>
      <path class="a" d="M11.23,18l-.82-.87.88-.82L14,13.8l.9-.84.81.92.2.22V11a4,4,0,0,0-4-4H4.77a4,4,0,0,0-4,4v7.15a4,4,0,0,0,4,4H6.39V18.77H10.3v3.35h1.62a4,4,0,0,0,2.38-.8ZM6.39,14.27l2-3.39,2,3.39Z"/>
    </g>
  </g>
</svg>
