<?xml version="1.0" encoding="UTF-8" standalone="no"?>
<svg
   xmlns:dc="http://purl.org/dc/elements/1.1/"
   xmlns:cc="http://creativecommons.org/ns#"
   xmlns:rdf="http://www.w3.org/1999/02/22-rdf-syntax-ns#"
   xmlns:svg="http://www.w3.org/2000/svg"
   xmlns="http://www.w3.org/2000/svg"
   xmlns:xlink="http://www.w3.org/1999/xlink"
   width="32"
   height="32"
   viewBox="0 0 8.4666667 8.4666667"
   version="1.1"
   id="svg8">
  <defs
     id="defs2">
    <linearGradient
       id="linearGradient899">
      <stop
         id="stop895"
         offset="0"
         style="stop-color:#d96f26;stop-opacity:1" />
      <stop
         id="stop897"
         offset="1"
         style="stop-color:#6d3626;stop-opacity:1" />
    </linearGradient>
    <linearGradient
       id="linearGradient855">
      <stop
         id="stop882"
         offset="0"
         style="stop-color:#1294ca;stop-opacity:1" />
      <stop
         id="stop884"
         offset="1"
         style="stop-color:#1a4374;stop-opacity:1" />
    </linearGradient>
    <linearGradient
       id="linearGradient855-7">
      <stop
         style="stop-color:#1294ca;stop-opacity:1"
         offset="0"
         id="stop851" />
      <stop
         style="stop-color:#1a4374;stop-opacity:1"
         offset="1"
         id="stop853" />
    </linearGradient>
    <linearGradient
       xlink:href="#linearGradient855-7"
       id="linearGradient857"
       x1="4.1161108"
       y1="290.10425"
       x2="4.1315813"
       y2="295.23245"
       gradientUnits="userSpaceOnUse" />
    <linearGradient
       xlink:href="#linearGradient855-7"
       id="linearGradient818"
       gradientUnits="userSpaceOnUse"
       x1="4.1161108"
       y1="290.10425"
       x2="4.1315813"
       y2="295.23245"
       gradientTransform="translate(8.2918527,-7.6776414)" />
    <linearGradient
       xlink:href="#linearGradient855-7"
       id="linearGradient856"
       x1="13.028367"
       y1="298.40561"
       x2="13.066781"
       y2="300.31464"
       gradientUnits="userSpaceOnUse"
       gradientTransform="matrix(14.766264,0,0,14.985582,-176.93562,-4469.7145)" />
    <linearGradient
       gradientUnits="userSpaceOnUse"
       y2="0.25112972"
       x2="4.2198801"
       y1="8.1437855"
       x1="4.3185382"
       id="linearGradient893"
       xlink:href="#linearGradient899" />
  </defs>
  <metadata
     id="metadata5">
    <rdf:RDF>
      <cc:Work
         rdf:about="">
        <dc:format>image/svg+xml</dc:format>
        <dc:type
           rdf:resource="http://purl.org/dc/dcmitype/StillImage" />
        <dc:title></dc:title>
      </cc:Work>
    </rdf:RDF>
  </metadata>
  <rect
     y="0.26458287"
     x="0.26458383"
     height="7.9375"
     width="7.937499"
     id="rect843"
     style="opacity:1;fill:url(#linearGradient893);fill-opacity:1;stroke:#d59216;stroke-width:0;stroke-linecap:butt;stroke-linejoin:round;stroke-miterlimit:4;stroke-dasharray:none;stroke-dashoffset:0;stroke-opacity:1" />
  <g
     id="text847"
     style="font-style:normal;font-weight:normal;font-size:5.87033558px;line-height:1.25;font-family:sans-serif;letter-spacing:0px;word-spacing:0px;fill:#ffffff;fill-opacity:1;stroke:none;stroke-width:0.14675838"
     aria-label="@">
    <path
       id="path860"
       style="font-style:normal;font-variant:normal;font-weight:normal;font-stretch:normal;font-size:5.87027264px;font-family:Trueno;-inkscape-font-specification:'Trueno, Normal';font-variant-ligatures:normal;font-variant-caps:normal;font-variant-numeric:normal;font-feature-settings:normal;text-align:start;writing-mode:lr-tb;text-anchor:start;fill:#ffffff;fill-opacity:1;stroke-width:0.14675838"
       d="m 1.603021,4.3392358 c 0,1.4147357 1.1270924,2.4655145 2.6181416,2.4655145 0.4461408,0 1.0272978,-0.1584974 1.3736438,-0.4050488 L 5.3541253,5.9711716 C 5.02539,6.2059825 4.5675087,6.3175177 4.2211626,6.3175177 c -1.1975356,0 -2.1132981,-0.8335788 -2.1132981,-1.9782819 0,-1.162314 0.968595,-2.0780765 2.1896117,-2.0780765 1.3032005,0 2.1191684,0.8981517 2.1191684,2.0663359 0,0.6046381 -0.2641623,1.0214275 -0.5518056,1.0214275 -0.1584974,0 -0.2700326,-0.093924 -0.2700326,-0.3169948 V 2.9832028 H 4.960817 V 3.3647705 C 4.9021143,3.2414948 4.5498979,2.9245001 4.0333139,2.9245001 c -0.7807462,0 -1.29146,0.6281191 -1.29146,1.4029951 0,0.8218382 0.6398598,1.3736438 1.356033,1.3736438 0.4050488,0 0.7690057,-0.1702379 1.0096869,-0.5224542 l 0.011741,0.1174054 c 0.064573,0.3287353 0.3228649,0.4754921 0.6809516,0.4754921 0.6574705,0 1.1212221,-0.5752867 1.1212221,-1.4616979 0,-1.4616979 -1.1153518,-2.5242172 -2.6240119,-2.5242172 -1.5145304,0 -2.6944552,1.1094815 -2.6944552,2.5535686 z m 1.8256548,-0.041092 c 0,-0.4344002 0.2935137,-0.7866166 0.7279138,-0.7866166 0.4637516,0 0.7631355,0.3522164 0.7631355,0.7924868 0,0.4578813 -0.2876434,0.8218382 -0.7513949,0.8218382 -0.4461407,0 -0.7396544,-0.3756974 -0.7396544,-0.8277084 z" />
  </g>
</svg>
