<svg xmlns="http://www.w3.org/2000/svg" viewBox="0 0 32 32">
  <defs>
    <style>
      .a {
        fill: #1b3d6e;
      }
    </style>
  </defs>
  <g>
    <g>
      <path class="a" d="M4.58,5.43h3c2.05,0,3.62.73,3.62,2.91S9.66,11.4,7.67,11.4H6.43v3.29H4.58Zm3,4.51c1.28,0,1.89-.54,1.89-1.6S8.76,6.91,7.48,6.91H6.43v3Z"/>
      <path class="a" d="M12.82,5.43h2.54c2.82,0,4.57,1.48,4.57,4.6s-1.75,4.66-4.47,4.66H12.82Zm2.42,7.77C17,13.2,18,12.28,18,10S17,6.92,15.24,6.92h-.57V13.2Z"/>
      <path class="a" d="M21.65,5.43h5.69V7H23.49V9.39h3.29v1.55H23.49v3.75H21.65Z"/>
    </g>
    <g>
      <path class="a" d="M3.25,21.81c0-3,2-4.84,4.43-4.84a3.89,3.89,0,0,1,2.86,1.19l-1,1.17a2.53,2.53,0,0,0-1.83-.77c-1.53,0-2.61,1.2-2.61,3.19S6.06,25,7.88,25A1.87,1.87,0,0,0,9,24.62V22.8H7.39V21.28h3.29v4.18a4.37,4.37,0,0,1-3,1.11C5.17,26.57,3.25,24.89,3.25,21.81Z"/>
      <path class="a" d="M12.57,17.14h2l1.57,4.33c.2.58.38,1.19.57,1.78h.06c.2-.59.36-1.2.56-1.78l1.54-4.33h2v9.25H19.28V22.53c0-.87.14-2.16.24-3h-.07l-.75,2.17-1.42,3.89H16.22l-1.44-3.89L14,19.5h0c.09.87.24,2.16.24,3v3.86H12.57Z"/>
      <path class="a" d="M23.14,17.14H25v7.7h3.76v1.55H23.14Z"/>
    </g>
  </g>
</svg>
